<svg xmlns="http://www.w3.org/2000/svg" width="1800" height="1520" viewBox="0 0 1800 1520">
  <defs>
    <marker id="arrow" markerWidth="10" markerHeight="10" refX="8" refY="3" orient="auto" markerUnits="strokeWidth">
      <path d="M0,0 L0,6 L9,3 z" fill="#334155" />
    </marker>
    <style>
      .title { font: 700 28px "Microsoft YaHei", "SimHei", Arial, sans-serif; fill: #0f172a; }
      .subtitle { font: 400 16px "Microsoft YaHei", "SimHei", Arial, sans-serif; fill: #475569; }
      .lane-title { font: 700 18px "Microsoft YaHei", "SimHei", Arial, sans-serif; fill: #0f172a; }
      .box { fill: #ffffff; stroke: #334155; stroke-width: 1.5; rx: 8; }
      .box-soft { fill: #f8fafc; stroke: #64748b; stroke-width: 1.2; rx: 8; }
      .box-gate { fill: #fff7ed; stroke: #ea580c; stroke-width: 1.6; rx: 8; }
      .box-lock { fill: #fef2f2; stroke: #dc2626; stroke-width: 1.7; rx: 8; }
      .box-ok { fill: #f0fdf4; stroke: #16a34a; stroke-width: 1.5; rx: 8; }
      .box-data { fill: #eff6ff; stroke: #2563eb; stroke-width: 1.5; rx: 8; }
      .label { font: 600 14px "Microsoft YaHei", "SimHei", Arial, sans-serif; fill: #0f172a; }
      .small { font: 400 12px "Microsoft YaHei", "SimHei", Arial, sans-serif; fill: #475569; }
      .edge { stroke: #334155; stroke-width: 1.4; fill: none; marker-end: url(#arrow); }
      .edge-dash { stroke: #64748b; stroke-width: 1.3; fill: none; stroke-dasharray: 6 5; marker-end: url(#arrow); }
      .note { fill: #fffbeb; stroke: #d97706; stroke-width: 1.4; rx: 8; }
      .lane { fill: #f8fafc; stroke: #cbd5e1; stroke-width: 1; rx: 12; }
    </style>
  </defs>

  <rect x="0" y="0" width="1800" height="1520" fill="#ffffff" />
  <text x="40" y="48" class="title">HPC App 发布系统状态机</text>
  <text x="40" y="76" class="subtitle">QA 准入要求发布信息完整，并且 app_info.json 中每个 test_cmd 都完成测试说明。发布锁定后所有快照不可变。CSV 仅首次初始化导入，后续发布沿用上一版本信息。</text>

  <rect x="30" y="110" width="1740" height="230" class="lane" />
  <text x="50" y="142" class="lane-title">发布周期</text>

  <rect x="60" y="170" width="130" height="54" class="box" />
  <text x="125" y="201" text-anchor="middle" class="label">草稿</text>

  <rect x="230" y="170" width="150" height="54" class="box-data" />
  <text x="305" y="193" text-anchor="middle" class="label">初始化/克隆数据</text>
  <text x="305" y="211" text-anchor="middle" class="small">首次 CSV/映射，后续沿用</text>

  <rect x="410" y="164" width="160" height="66" class="box-data" />
  <text x="490" y="190" text-anchor="middle" class="label">对比 app_info</text>
  <text x="490" y="208" text-anchor="middle" class="small">拉新 JSON，对比上版</text>

  <rect x="610" y="170" width="150" height="54" class="box" />
  <text x="685" y="193" text-anchor="middle" class="label">Owner 填写中</text>
  <text x="685" y="211" text-anchor="middle" class="small">确认差异和待办</text>

  <rect x="800" y="164" width="180" height="66" class="box-gate" />
  <text x="890" y="190" text-anchor="middle" class="label">QA 准入检查</text>
  <text x="890" y="208" text-anchor="middle" class="small">完整 + 差异已确认</text>

  <rect x="1020" y="170" width="130" height="54" class="box-ok" />
  <text x="1085" y="201" text-anchor="middle" class="label">QA 进行中</text>

  <rect x="1180" y="170" width="140" height="54" class="box-gate" />
  <text x="1250" y="193" text-anchor="middle" class="label">QA 重新检查</text>
  <text x="1250" y="211" text-anchor="middle" class="small">只允许删减</text>

  <rect x="1370" y="164" width="150" height="66" class="box-gate" />
  <text x="1445" y="190" text-anchor="middle" class="label">等待锁定</text>
  <text x="1445" y="208" text-anchor="middle" class="small">QA 完成</text>

  <rect x="1560" y="164" width="150" height="66" class="box-lock" />
  <text x="1635" y="190" text-anchor="middle" class="label">发布已锁定</text>
  <text x="1635" y="208" text-anchor="middle" class="small">快照不可变</text>

  <rect x="1340" y="250" width="130" height="44" class="box-data" />
  <text x="1405" y="276" text-anchor="middle" class="label">最终生成</text>

  <rect x="1500" y="250" width="130" height="44" class="box-data" />
  <text x="1565" y="276" text-anchor="middle" class="label">Gerrit 推送</text>

  <rect x="1500" y="300" width="130" height="34" class="box-ok" />
  <text x="1565" y="322" text-anchor="middle" class="label">Docs 合入</text>

  <path d="M190 197 L230 197" class="edge" />
  <path d="M380 197 L410 197" class="edge" />
  <path d="M570 197 L610 197" class="edge" />
  <path d="M760 197 L800 197" class="edge" />
  <path d="M980 197 L1020 197" class="edge" />
  <path d="M1150 197 L1180 197" class="edge" />
  <path d="M1320 197 L1370 197" class="edge" />
  <path d="M1520 197 L1560 197" class="edge" />
  <path d="M1635 230 C1635 245 1470 245 1470 272" class="edge" />
  <path d="M1470 272 L1500 272" class="edge" />
  <path d="M1565 294 L1565 300" class="edge" />
  <path d="M890 230 C890 285 685 285 685 224" class="edge-dash" />
  <text x="790" y="292" text-anchor="middle" class="small">信息缺失或 app_info 差异未确认时退回 Owner</text>
  <path d="M1250 170 C1250 132 1085 132 1085 170" class="edge-dash" />
  <text x="1168" y="128" text-anchor="middle" class="small">重检通过后回到 QA</text>

  <rect x="50" y="250" width="700" height="68" class="note" />
  <text x="70" y="276" class="label">初始化、新增 app 与 app_info 差异规则</text>
  <text x="70" y="296" class="small">CSV、alias mapping、app-owner 映射仅首次维护；后续沿用上一版本并拉取新 app_info.json。</text>
  <text x="70" y="314" class="small">系统标出版本、芯片、架构、build/test、test_cmd 差异，owner 确认后才能进入 QA。</text>

  <rect x="30" y="370" width="1740" height="360" class="lane" />
  <text x="50" y="402" class="lane-title">App 发布快照</text>

  <rect x="60" y="440" width="120" height="54" class="box" />
  <text x="120" y="471" text-anchor="middle" class="label">已导入</text>

  <rect x="220" y="440" width="150" height="54" class="box-data" />
  <text x="295" y="463" text-anchor="middle" class="label">已分配 Owner</text>
  <text x="295" y="481" text-anchor="middle" class="small">支持多人共有</text>

  <rect x="410" y="420" width="160" height="54" class="box-gate" />
  <text x="490" y="443" text-anchor="middle" class="label">信息不完整</text>
  <text x="490" y="461" text-anchor="middle" class="small">阻塞 QA</text>

  <rect x="410" y="510" width="160" height="54" class="box-ok" />
  <text x="490" y="533" text-anchor="middle" class="label">信息完整</text>
  <text x="490" y="551" text-anchor="middle" class="small">必填项齐备</text>

  <rect x="620" y="510" width="160" height="54" class="box-ok" />
  <text x="700" y="533" text-anchor="middle" class="label">Owner 已确认</text>
  <text x="700" y="551" text-anchor="middle" class="small">负责人确认</text>

  <rect x="830" y="496" width="190" height="82" class="box-gate" />
  <text x="925" y="520" text-anchor="middle" class="label">可进入 QA</text>
  <text x="925" y="540" text-anchor="middle" class="small">发布信息完整</text>
  <text x="925" y="558" text-anchor="middle" class="small">差异确认 + 测试说明完成</text>

  <rect x="1070" y="510" width="120" height="54" class="box-ok" />
  <text x="1130" y="541" text-anchor="middle" class="label">QA 中</text>

  <rect x="1240" y="420" width="170" height="66" class="box-gate" />
  <text x="1325" y="446" text-anchor="middle" class="label">QA 修改申请</text>
  <text x="1325" y="464" text-anchor="middle" class="small">owner 提交</text>

  <rect x="1240" y="536" width="170" height="66" class="box-gate" />
  <text x="1325" y="562" text-anchor="middle" class="label">QA 需重检</text>
  <text x="1325" y="580" text-anchor="middle" class="small">关键字段删减</text>

  <rect x="1460" y="420" width="130" height="54" class="box-ok" />
  <text x="1525" y="443" text-anchor="middle" class="label">QA 通过</text>
  <text x="1525" y="461" text-anchor="middle" class="small">或 QA 失败</text>

  <rect x="1460" y="536" width="150" height="66" class="box-gate" />
  <text x="1535" y="562" text-anchor="middle" class="label">移出本次发布</text>
  <text x="1535" y="580" text-anchor="middle" class="small">本次不发布</text>

  <rect x="1640" y="476" width="120" height="70" class="box-lock" />
  <text x="1700" y="503" text-anchor="middle" class="label">快照</text>
  <text x="1700" y="521" text-anchor="middle" class="label">已锁定</text>
  <text x="1700" y="539" text-anchor="middle" class="small">不可变</text>

  <path d="M180 467 L220 467" class="edge" />
  <path d="M370 467 L410 447" class="edge" />
  <path d="M490 474 L490 510" class="edge" />
  <path d="M570 537 L620 537" class="edge" />
  <path d="M780 537 L830 537" class="edge" />
  <path d="M1020 537 L1070 537" class="edge" />
  <path d="M1190 537 C1220 537 1210 453 1240 453" class="edge" />
  <path d="M1325 486 L1325 536" class="edge" />
  <path d="M1410 453 L1460 447" class="edge" />
  <path d="M1410 569 L1460 569" class="edge" />
  <path d="M1590 447 C1620 447 1620 501 1640 501" class="edge" />
  <path d="M1610 569 C1630 569 1630 523 1640 523" class="edge" />
  <path d="M1325 602 C1325 660 1130 660 1130 564" class="edge-dash" />
  <text x="1230" y="681" text-anchor="middle" class="small">重检通过后回到 QA</text>

  <rect x="650" y="628" width="160" height="44" class="box-gate" />
  <text x="730" y="646" text-anchor="middle" class="label">app_info 差异</text>
  <text x="730" y="664" text-anchor="middle" class="small">待确认</text>

  <rect x="850" y="628" width="150" height="44" class="box-ok" />
  <text x="925" y="646" text-anchor="middle" class="label">差异已确认</text>
  <text x="925" y="664" text-anchor="middle" class="small">逐项确认</text>

  <rect x="1040" y="628" width="190" height="44" class="box-ok" />
  <text x="1135" y="646" text-anchor="middle" class="label">test_cmd 说明</text>
  <text x="1135" y="664" text-anchor="middle" class="small">已更新</text>

  <path d="M700 564 C700 595 730 595 730 628" class="edge" />
  <path d="M810 650 L850 650" class="edge" />
  <path d="M1000 650 L1040 650" class="edge" />
  <path d="M1135 628 C1135 595 925 595 925 578" class="edge" />

  <rect x="55" y="615" width="560" height="72" class="note" />
  <text x="75" y="642" class="label">QA 门禁</text>
  <text x="75" y="662" class="small">每个 app_info.json app_test.*.test_cmd 都必须说明数据集、测试内容、结果查看方式和通过标准。</text>
  <text x="75" y="680" class="small">Owner 可新增测试项，但不能替代 app_info 中已有测试命令的说明。</text>

  <rect x="30" y="760" width="1740" height="270" class="lane" />
  <text x="50" y="792" class="lane-title">变更申请</text>

  <rect x="80" y="845" width="120" height="54" class="box" />
  <text x="140" y="876" text-anchor="middle" class="label">草稿</text>

  <rect x="250" y="845" width="130" height="54" class="box" />
  <text x="315" y="876" text-anchor="middle" class="label">已提交</text>

  <rect x="440" y="795" width="150" height="60" class="box-ok" />
  <text x="515" y="820" text-anchor="middle" class="label">自动应用</text>
  <text x="515" y="838" text-anchor="middle" class="small">错别字/格式</text>

  <rect x="440" y="900" width="170" height="66" class="box-gate" />
  <text x="525" y="926" text-anchor="middle" class="label">等待 RM Review</text>
  <text x="525" y="944" text-anchor="middle" class="small">关键字段</text>

  <rect x="690" y="900" width="210" height="66" class="box-gate" />
  <text x="795" y="926" text-anchor="middle" class="label">已批准，需重检</text>
  <text x="795" y="944" text-anchor="middle" class="small">重新跑 QA 准入</text>

  <rect x="980" y="845" width="120" height="54" class="box-ok" />
  <text x="1040" y="876" text-anchor="middle" class="label">已应用</text>

  <rect x="1160" y="845" width="120" height="54" class="box-lock" />
  <text x="1220" y="876" text-anchor="middle" class="label">已拒绝</text>

  <rect x="1330" y="815" width="340" height="96" class="note" />
  <text x="1350" y="842" class="label">QA 期间规则</text>
  <text x="1350" y="862" class="small">QA 开始后，发布范围只允许删减。</text>
  <text x="1350" y="880" class="small">测试、环境、结果查看、安装/运行命令均为关键字段。</text>
  <text x="1350" y="898" class="small">新增 app、芯片、架构、包类型、版本都会被阻止。</text>

  <rect x="250" y="975" width="130" height="38" class="box-gate" />
  <text x="315" y="999" text-anchor="middle" class="label">停止申请</text>

  <rect x="430" y="975" width="130" height="38" class="box-gate" />
  <text x="495" y="999" text-anchor="middle" class="label">RM 审批</text>

  <rect x="610" y="975" width="130" height="38" class="box-ok" />
  <text x="675" y="999" text-anchor="middle" class="label">停止生效</text>

  <rect x="790" y="975" width="160" height="38" class="box-data" />
  <text x="870" y="999" text-anchor="middle" class="label">通知 QA/Infra</text>

  <path d="M380 994 L430 994" class="edge" />
  <path d="M560 994 L610 994" class="edge" />
  <path d="M740 994 L790 994" class="edge" />

  <path d="M200 872 L250 872" class="edge" />
  <path d="M380 872 C410 872 410 825 440 825" class="edge" />
  <path d="M380 872 C410 872 410 933 440 933" class="edge" />
  <path d="M610 933 L690 933" class="edge" />
  <path d="M900 933 C940 933 940 872 980 872" class="edge" />
  <path d="M610 933 C700 1000 1110 1000 1160 872" class="edge-dash" />
  <path d="M590 825 C730 780 1090 790 1160 872" class="edge-dash" />

  <rect x="30" y="1060" width="1740" height="330" class="lane" />
  <text x="50" y="1092" class="lane-title">生成物与 Gerrit</text>

  <rect x="70" y="1150" width="170" height="66" class="box-data" />
  <text x="155" y="1176" text-anchor="middle" class="label">已生成预览</text>
  <text x="155" y="1194" text-anchor="middle" class="small">系统内部</text>

  <rect x="300" y="1150" width="170" height="66" class="box-data" />
  <text x="385" y="1176" text-anchor="middle" class="label">预览已更新</text>
  <text x="385" y="1194" text-anchor="middle" class="small">仅 lock 前</text>

  <rect x="540" y="1140" width="170" height="82" class="box-lock" />
  <text x="625" y="1166" text-anchor="middle" class="label">已生成最终版本</text>
  <text x="625" y="1184" text-anchor="middle" class="small">来自冻结快照</text>
  <text x="625" y="1202" text-anchor="middle" class="small">RST + release data</text>

  <rect x="780" y="1105" width="190" height="70" class="box-data" />
  <text x="875" y="1132" text-anchor="middle" class="label">Docs Gerrit</text>
  <text x="875" y="1150" text-anchor="middle" class="small">release note/manual/ai4sci</text>

  <rect x="780" y="1215" width="190" height="70" class="box-data" />
  <text x="875" y="1242" text-anchor="middle" class="label">Data Gerrit</text>
  <text x="875" y="1260" text-anchor="middle" class="small">owner 信息 + 快照</text>

  <rect x="1040" y="1105" width="150" height="70" class="box-gate" />
  <text x="1115" y="1132" text-anchor="middle" class="label">Docs 已 Review</text>
  <text x="1115" y="1150" text-anchor="middle" class="small">RM review</text>

  <rect x="1260" y="1105" width="140" height="70" class="box-ok" />
  <text x="1330" y="1132" text-anchor="middle" class="label">Docs 已合入</text>
  <text x="1330" y="1150" text-anchor="middle" class="small">官方 docs</text>

  <rect x="1040" y="1215" width="150" height="70" class="box-ok" />
  <text x="1115" y="1242" text-anchor="middle" class="label">Data 已合入</text>
  <text x="1115" y="1260" text-anchor="middle" class="small">审计追溯</text>

  <rect x="1480" y="1155" width="150" height="70" class="box-lock" />
  <text x="1555" y="1182" text-anchor="middle" class="label">已废弃</text>
  <text x="1555" y="1200" text-anchor="middle" class="small">手动取消</text>

  <path d="M240 1183 L300 1183" class="edge" />
  <path d="M470 1183 L540 1183" class="edge" />
  <path d="M710 1180 C745 1180 745 1140 780 1140" class="edge" />
  <path d="M710 1185 C745 1185 745 1250 780 1250" class="edge" />
  <path d="M970 1140 L1040 1140" class="edge" />
  <path d="M1190 1140 L1260 1140" class="edge" />
  <path d="M970 1250 L1040 1250" class="edge" />
  <path d="M1190 1250 C1290 1290 1430 1260 1480 1190" class="edge-dash" />
  <path d="M1190 1140 C1300 1060 1440 1090 1480 1190" class="edge-dash" />

  <rect x="65" y="1305" width="640" height="58" class="note" />
  <text x="85" y="1332" class="label">最终生成规则</text>
  <text x="85" y="1352" class="small">QA 期间只生成系统内预览；发布锁定后，才基于冻结快照推送 Gerrit。</text>

  <rect x="30" y="1420" width="1740" height="70" fill="#f1f5f9" stroke="#cbd5e1" rx="12" />
  <text x="50" y="1450" class="label">图例</text>
  <rect x="135" y="1434" width="20" height="16" class="box-data" />
  <text x="165" y="1447" class="small">数据/生成物</text>
  <rect x="275" y="1434" width="20" height="16" class="box-gate" />
  <text x="305" y="1447" class="small">门禁/重检</text>
  <rect x="420" y="1434" width="20" height="16" class="box-ok" />
  <text x="450" y="1447" class="small">通过/活动中</text>
  <rect x="565" y="1434" width="20" height="16" class="box-lock" />
  <text x="595" y="1447" class="small">锁定/最终/拒绝</text>
  <line x1="750" y1="1442" x2="800" y2="1442" class="edge" />
  <text x="815" y="1447" class="small">普通流转</text>
  <line x1="970" y1="1442" x2="1020" y2="1442" class="edge-dash" />
  <text x="1035" y="1447" class="small">条件/例外流转</text>
</svg>
